<svg xmlns="http://www.w3.org/2000/svg" version="1.1" xmlns:xlink="http://www.w3.org/1999/xlink" xmlns:svgjs="http://svgjs.dev/svgjs" width="1440" height="560" preserveAspectRatio="none" viewBox="0 0 1440 560"><g mask="url(&quot;#SvgjsMask1057&quot;)" fill="none"><rect width="1440" height="560" x="0" y="0" fill="rgba(12, 10, 9, 1)"></rect><path d="M0,588.895C110.401,586.92,214.261,536.931,301.882,469.738C384.946,406.04,442.505,317.024,481.306,219.805C518.745,125.998,516.347,26.321,519.148,-74.642C522.532,-196.614,584.697,-345.478,499.409,-432.74C412.816,-521.337,260.475,-458.849,136.787,-465.854C43.558,-471.134,-46.175,-487.531,-137.659,-468.822C-235.786,-448.754,-332.768,-419.411,-408.846,-354.267C-492.377,-282.742,-574.298,-193.621,-586.666,-84.35C-598.955,24.23,-521.62,118.136,-473.412,216.2C-426.663,311.295,-392.166,415.12,-308.906,480.667C-221.406,549.551,-111.343,590.887,0,588.895" fill="#090807"></path><path d="M1440 1145.278C1547.647 1141.875 1623.501 1041.034 1701.2359999999999 966.49 1766.46 903.943 1805.533 825.4359999999999 1853.437 748.81 1909.4270000000001 659.25 1997.9589999999998 583.878 2006.259 478.584 2015.199 365.178 1990.012 230.85000000000002 1899.723 161.64800000000002 1808.741 91.91500000000002 1677.242 153.82600000000002 1563.54 139.26299999999998 1472.896 127.65300000000002 1389.964 66.27300000000002 1300.497 84.89699999999999 1208.346 104.07900000000001 1139.606 175.56799999999998 1072.425 241.495 1000.043 312.526 919.256 383.07 896.055 481.793 872.054 583.922 894.385 694.11 944.381 786.342 992.693 875.467 1085.824 923.886 1167.93 983.3489999999999 1255.173 1046.532 1332.335 1148.681 1440 1145.278" fill="#0f0c0b"></path></g><defs><mask id="SvgjsMask1057"><rect width="1440" height="560" fill="#ffffff"></rect></mask></defs></svg>